/* XPM */
static char * fma_xpm[] = {
"32 32 2 1",
"       c #A4A416161616",
".      c #000000000000",
"                                ",
"                                ",
"                                ",
"                                ",
"                                ",
"                                ",
" ......... ...    ...  ....     ",
"   .     .  ..    ..     . .    ",
"   .     .  ..    ..     . .    ",
"   .     .  . .  . .    .   .   ",
"   .  .     . .  . .    .   .   ",
"   .  .     .  ..  .    .   .   ",
"   ....     .  ..  .    .   .   ",
"   .  .     .      .    .   .   ",
"   .  .     .      .   .......  ",
"   .        .      .   .     .  ",
"   .        .      .   .     .  ",
"   .        .      .   .     .  ",
"   .        .      .   .     .  ",
" ......    ....  .... ....  ... ",
"                                ",
"                                ",
"                                ",
"                                ",
"                                ",
"                                ",
"                                ",
"                                ",
"                                ",
"                                ",
"                                ",
"                                "};
