/* XPM */
static char *pplots[]={
"32 32 2 1",
"# c #000000",
". c #ff00ff",
"................................",
"................................",
"................................",
"................................",
"................................",
"................................",
"..#########......#########......",
"....#......#.......#......#.....",
"....#.......#......#.......#....",
"....#.......#......#.......#....",
"....#.......#......#.......#....",
"....#.......#......#.......#....",
"....#......#.......#......#.....",
"....#######........#######......",
"....#..............#............",
"....#..............#............",
"....#..............#............",
"....#..............#............",
"....#..............#............",
"..#######........#######........",
"................................",
"................................",
"................................",
"................................",
"................................",
"................................",
"................................",
"................................",
"................................",
"................................",
"................................",
"................................"};
