/* XPM */
static char * winbutton_xpm[] = {
"32 32 2 1",
"       c #FFFFFFFF0000",
".      c #000000000000",
"                                ",
"                                ",
"                                ",
"                                ",
"                                ",
"                                ",
" .....   ..... ..... ...    ... ",
"  .         .    .    ..     .  ",
"  .         .    .    . .    .  ",
"  .    .    .    .    . .    .  ",
"  .    .    .    .    .  .   .  ",
"  .   . .   .    .    .  .   .  ",
"  .   . .   .    .    .  .   .  ",
"   .  . .  .     .    .   .  .  ",
"   . .   . .     .    .   .  .  ",
"   . .   . .     .    .   .  .  ",
"   . .   . .     .    .    . .  ",
"   ..     ..     .    .    . .  ",
"   ..     ..     .    .     ..  ",
"   ..     ..   ..... ....   ... ",
"                                ",
"                                ",
"                                ",
"                                ",
"                                ",
"                                ",
"                                ",
"                                ",
"                                ",
"                                ",
"                                ",
"                                "};
